<svg width="960" height="720" viewBox="0 0 960 720" fill="none" xmlns="http://www.w3.org/2000/svg">
  <rect width="960" height="720" fill="#F2EBDE"/>
  <rect x="40" y="40" width="880" height="640" rx="36" fill="#FFFCF7" stroke="#D8D0C6"/>
  <rect x="76" y="78" width="808" height="78" rx="22" fill="#F4EEE4"/>
  <rect x="112" y="106" width="164" height="22" rx="11" fill="#1C1917"/>
  <rect x="722" y="102" width="126" height="30" rx="15" fill="#0F766E"/>
  <rect x="76" y="190" width="250" height="450" rx="28" fill="#F4EEE4"/>
  <rect x="356" y="190" width="528" height="238" rx="28" fill="#1C1917"/>
  <rect x="392" y="228" width="196" height="18" rx="9" fill="#FFFFFF"/>
  <rect x="392" y="262" width="286" height="14" rx="7" fill="#B8B1A8"/>
  <rect x="392" y="314" width="140" height="48" rx="24" fill="#0F766E"/>
  <rect x="560" y="314" width="140" height="48" rx="24" fill="#D97706"/>
  <rect x="356" y="452" width="164" height="188" rx="24" fill="#F4EEE4"/>
  <rect x="538" y="452" width="164" height="188" rx="24" fill="#F4EEE4"/>
  <rect x="720" y="452" width="164" height="188" rx="24" fill="#F4EEE4"/>
  <rect x="110" y="228" width="182" height="18" rx="9" fill="#57534E"/>
  <rect x="110" y="274" width="148" height="14" rx="7" fill="#8A8178"/>
  <rect x="110" y="330" width="182" height="76" rx="18" fill="#FFFFFF"/>
  <rect x="110" y="428" width="182" height="76" rx="18" fill="#FFFFFF"/>
  <rect x="110" y="526" width="182" height="76" rx="18" fill="#FFFFFF"/>
  <circle cx="438" cy="510" r="36" fill="#0F766E" fill-opacity="0.18"/>
  <circle cx="620" cy="510" r="36" fill="#D97706" fill-opacity="0.18"/>
  <circle cx="802" cy="510" r="36" fill="#1C1917" fill-opacity="0.12"/>
</svg>
